<mxfile host="app.diagrams.net" modified="2023-09-26T17:09:28.657Z" agent="Mozilla/5.0 (Windows NT 10.0; Win64; x64; rv:109.0) Gecko/20100101 Firefox/117.0" version="21.8.0" etag="26Jtqxd_2IOxyVYoJi7J" type="github">
  <diagram name="Page-1" id="MlACPp09vxhvRzGEfi5b">
    <mxGraphModel>
      <root>
        <mxCell id="0" />
        <mxCell id="1" parent="0" />
      </root>
    </mxGraphModel>
  </diagram>
</mxfile>
